<svg version="1.1" xmlns="http://www.w3.org/2000/svg" viewBox="0 0 526 555.25" width="526" height="555.25">
  <!-- svg-source:excalidraw -->
  
  <defs>
    <style>
      @font-face {
        font-family: "Virgil";
        src: url("https://unpkg.com/@excalidraw/excalidraw@0.13.0-4d26993/dist/excalidraw-assets/Virgil.woff2");
      }
      @font-face {
        font-family: "Cascadia";
        src: url("https://unpkg.com/@excalidraw/excalidraw@0.13.0-4d26993/dist/excalidraw-assets/Cascadia.woff2");
      }
    </style>
  </defs>
  <g stroke-linecap="round" transform="translate(11 10) rotate(0 126 133.5)"><path d="M1.12 -1.62 C50.54 -2.61, 102.18 -3, 253.55 0.44 M0.75 0.06 C56.57 -0.85, 113.63 -0.19, 251.8 0.15 M250.53 0.61 C252.24 57.07, 250.22 111.12, 252.43 266.47 M251.57 -0.12 C250.29 94.72, 250.83 190.13, 251.59 267.05 M252.08 268.48 C199.73 265.89, 148.55 265.98, -1.08 265.55 M251.65 267.25 C197.6 268.79, 144.28 269.04, 0.1 267.26 M-0.97 266.49 C-2.91 203.86, -1.86 139.68, -0.91 1.08 M-0.13 267.73 C0.18 181.13, -0.92 96.88, 0.51 0.19" stroke="#000000" stroke-width="1" fill="none"></path></g><g stroke-linecap="round" transform="translate(263 10) rotate(0 126 133.5)"><path d="M0.93 -1.27 C54.57 -0.2, 109.97 0.56, 250.54 0.99 M-0.78 0.74 C52.4 -0.09, 105.85 -0.59, 251.64 -0.36 M250.64 1.22 C251.77 69.1, 251.09 138.35, 252.53 266.7 M251.53 0.56 C252.07 96.77, 252.01 193.79, 252.53 266.82 M252.32 267.33 C158.16 268.12, 68.15 269.65, -1.07 265.98 M252.66 266.92 C158.53 267.19, 64.45 266.85, 0 266.37 M-0.47 267 C2.26 171.07, 1.73 77.74, 1.37 -0.02 M0.17 266.75 C2.02 208.74, 1.52 150.01, -0.67 0.21" stroke="#000000" stroke-width="1" fill="none"></path></g><g stroke-linecap="round" transform="translate(10 278.25) rotate(0 126 133.5)"><path d="M0.39 1.31 C59.57 0, 118.88 0.1, 250.73 0 M-0.27 -0.24 C56.07 2.11, 111.34 1.84, 251.76 0.71 M252.22 0.35 C249.79 80.95, 250.78 159.72, 252.02 265.67 M251.91 0.33 C251.84 87.34, 251.31 173.93, 251.91 266.92 M252.83 267.56 C200.99 267.47, 148.67 267.07, 0.44 266.24 M252 266.26 C195.15 267.82, 138.38 267.81, -0.74 266.83 M0.27 266.9 C2.09 164.08, 1.17 62.31, 0.83 -0.47 M0.71 267.5 C-2.79 166.91, -2.62 65.62, -0.44 -0.41" stroke="#000000" stroke-width="1" fill="none"></path></g><g stroke-linecap="round" transform="translate(264 278.25) rotate(0 126 133.5)"><path d="M0.83 0.56 C50.71 -0.15, 100.12 -0.55, 252.44 -0.76 M0 -0.74 C56.57 -1.71, 113.22 -1.72, 251.26 -0.17 M252.27 -0.1 C250.61 101.11, 249.69 203.36, 252.83 266.53 M252.71 0.5 C253.24 101.16, 253.41 201.13, 251.56 266.59 M251.04 265.63 C174.42 265.91, 95.27 265.15, -1.32 266.53 M252.06 266.38 C157.88 265.77, 62.13 265.82, 0.57 266.66 M0.28 266.86 C2.92 180.9, 1.05 94.68, -0.41 0.74 M0.69 267.42 C1.72 169.26, 1.4 71.7, 0.5 -0.33" stroke="#000000" stroke-width="1" fill="none"></path></g><g transform="translate(89.5 121) rotate(0 47.5 22.5)"><text x="47.5" y="32" font-family="Virgil, Segoe UI Emoji" font-size="36px" fill="#000000" text-anchor="middle" style="white-space: pre;" direction="ltr">Train</text></g><g transform="translate(50.5 389.25) rotate(0 85.5 22.5)"><text x="85.5" y="32" font-family="Virgil, Segoe UI Emoji" font-size="36px" fill="#000000" text-anchor="middle" style="white-space: pre;" direction="ltr">Validation</text></g><g transform="translate(344.5 389.25) rotate(0 45.5 22.5)"><text x="45.5" y="32" font-family="Virgil, Segoe UI Emoji" font-size="36px" fill="#000000" text-anchor="middle" style="white-space: pre;" direction="ltr">Test</text></g><g transform="translate(341.5 121) rotate(0 47.5 22.5)"><text x="47.5" y="32" font-family="Virgil, Segoe UI Emoji" font-size="36px" fill="#000000" text-anchor="middle" style="white-space: pre;" direction="ltr">Train</text></g></svg>