<svg version="1.1" xmlns="http://www.w3.org/2000/svg" viewBox="0 0 828.0596359048498 833.5714285714287" width="828.0596359048498" height="833.5714285714287">
  <!-- svg-source:excalidraw -->
  
  <defs>
    <style>
      @font-face {
        font-family: "Virgil";
        src: url("https://unpkg.com/@excalidraw/excalidraw@0.13.0-4d26993/dist/excalidraw-assets/Virgil.woff2");
      }
      @font-face {
        font-family: "Cascadia";
        src: url("https://unpkg.com/@excalidraw/excalidraw@0.13.0-4d26993/dist/excalidraw-assets/Cascadia.woff2");
      }
    </style>
  </defs>
  <g stroke-linecap="round" transform="translate(218.63106447627854 103.57142857142861) rotate(0 64 64)"><path d="M0.65 1.63 C33.41 -2, 67.1 -0.42, 128.4 1 M-0.4 0.39 C41.18 0.42, 82.86 -0.98, 127.26 0.06 M127.72 -0.98 C127.43 42.35, 128.25 85.96, 128.95 129.57 M128.3 0.46 C127.92 37.34, 127.96 73.92, 127.62 127.5 M129.08 129.13 C84.09 129.11, 44.96 129.01, 0.62 127.53 M128.93 127.57 C84.26 129.09, 39.87 128.16, 0.63 128.89 M1.49 129.04 C0.69 83.71, 1.24 36.58, 0.26 -0.9 M0.57 128.79 C0.69 97.8, -0.65 69.5, 0.8 -0.49" stroke="#000000" stroke-width="1" fill="none"></path></g><g stroke-linecap="round" transform="translate(347.91677876199276 103.57142857142861) rotate(0 64 64)"><path d="M-1.08 -0.03 C43.53 -1.48, 89.23 -1.15, 127.91 1.08 M0.99 0.53 C45.97 -0.98, 91.75 -0.56, 128.72 0.93 M127.23 -1.53 C129.42 34.71, 129.24 64.56, 129.14 129.49 M128.2 -0.45 C128.03 44.62, 127.23 89.89, 127.2 128.57 M126.04 129.82 C81.04 126.4, 30.85 128.5, -0.8 129.61 M127.07 128.02 C99.18 127.46, 71.16 127.79, -0.06 127.71 M-1.63 126.5 C-1.05 92.1, -0.67 54.52, 1.14 0.23 M0.98 128.36 C-0.23 89.89, 0.78 50.23, -0.9 -0.44" stroke="#000000" stroke-width="1" fill="none"></path></g><g stroke-linecap="round" transform="translate(477.2024930477071 103.57142857142861) rotate(0 64 64)"><path d="M0.33 -0.77 C48.72 1.09, 102.28 0.91, 126.69 1.14 M0.48 0.2 C47.49 0.22, 95.43 -0.59, 127.74 -0.8 M127.01 -1.96 C130.83 47.36, 128.04 91.48, 129.13 127.2 M127.45 -0.93 C126.98 47.88, 127.12 96.56, 128.5 127.94 M127.92 126.37 C91.85 127.65, 59.04 128.03, -1.01 129.14 M127.61 128.98 C88.46 127.26, 49.2 128.27, 0.41 127.1 M-1.79 127.67 C-0.54 95.56, -1.74 64.47, -1.67 -0.29 M-0.61 127.99 C-0.12 99, -0.51 71.89, -0.58 0.39" stroke="#000000" stroke-width="1" fill="none"></path></g><g stroke-linecap="round" transform="translate(606.4882073334213 103.57142857142861) rotate(0 64 64)"><path d="M-1.53 1.26 C41.83 1.56, 78.8 1.63, 129.49 1.04 M-0.45 0.13 C37.01 -0.93, 74.67 -1.05, 128.57 0.79 M129.82 1.6 C126.4 42.96, 128.5 85.21, 129.61 126.37 M128.02 -0.84 C127.46 41.02, 127.79 83.76, 127.71 127.83 M126.5 127.3 C86.43 126.63, 43.17 128.09, 0.23 128.11 M128.36 127.52 C93.13 129.77, 56.71 128.35, -0.44 128.14 M-0.37 128.29 C-0.42 91.21, -0.53 50.3, -1.57 -0.59 M-0.49 127.33 C-0.1 85.12, 0.21 41.54, 0.54 1" stroke="#000000" stroke-width="1" fill="none"></path></g><g stroke-linecap="round" transform="translate(89.34535019056432 103.57142857142861) rotate(0 64 64)"><path d="M-1.63 0.55 C44.53 -2.89, 91.3 -2.72, 128.33 -1.78 M-0.17 0.27 C44.71 -0.44, 88.74 0.03, 128.17 -0.16 M128.11 -0.4 C127.94 33.87, 129.44 62.87, 129.96 129.04 M128.14 0.02 C125.95 43.49, 126.66 87.46, 127.22 128.96 M127.41 128.79 C99.08 126.97, 71.63 125.64, -1.77 129.09 M129 127.16 C96.6 128.01, 65.48 128.75, -0.29 128.23 M0.44 128.92 C1.75 95.12, -1.45 63.83, 1.65 -0.91 M0.63 127.04 C0.5 91.61, 0.95 55.68, -0.52 0.02" stroke="#000000" stroke-width="1" fill="none"></path></g><g stroke-linecap="round" transform="translate(218.63106447627854 231.96428571428572) rotate(0 64 64)"><path d="M1.2 1.65 C50.73 0.38, 97.76 -0.37, 126.62 -0.66 M-0.15 0.99 C27.91 0.48, 53.29 1.22, 127.65 -0.52 M127.47 -1.27 C126.27 45.73, 126.84 87.74, 129.43 127.42 M128.87 -0.98 C127.98 26.12, 128.85 52.72, 128.34 127.6 M128.87 127.37 C78.13 128.12, 25.36 128.07, -0.71 128.47 M127.7 127.67 C94.45 129.01, 60.89 128.12, -0.5 128.89 M-1.05 127.17 C-0.39 103.02, 1.15 75.66, 0.95 0.09 M-0.24 127.51 C1.71 100.41, 2.08 72.97, -0.61 -0.26" stroke="#000000" stroke-width="1" fill="none"></path></g><g stroke-linecap="round" transform="translate(347.91677876199276 231.96428571428572) rotate(0 64 64)"><path d="M1.65 1.74 C50.38 -0.99, 100.36 -2.15, 127.34 -1.79 M0.99 0.96 C26.94 -0.42, 54.96 -0.16, 127.48 0.46 M126.73 -0.75 C130.12 28.44, 127.8 58.68, 127.42 126.2 M127.02 -0.77 C126.99 46.03, 126.74 92.2, 127.6 128.97 M127.37 128.93 C77.4 127.53, 26.52 127.84, 0.47 127.17 M127.67 127.55 C81.75 126.69, 33.93 127.11, 0.89 127.09 M-0.83 127.73 C0.57 89.64, -0.07 49.69, 0.09 -1.65 M-0.49 128.61 C-0.26 101.58, 0.14 72.58, -0.26 -0.66" stroke="#000000" stroke-width="1" fill="none"></path></g><g stroke-linecap="round" transform="translate(477.2024930477071 231.96428571428572) rotate(0 64 64)"><path d="M1.74 -0.35 C30.84 -2.16, 60.75 -1.72, 126.21 -1.74 M0.96 -0.36 C29.43 -0.88, 59.72 -1.78, 128.46 -0.76 M127.25 1.4 C127.47 44.68, 129.09 90.6, 126.2 129.18 M127.23 -0.74 C129.21 34.78, 129.44 71.16, 128.97 128.97 M128.93 128.23 C89.68 127.77, 52.69 128.06, -0.83 129.33 M127.55 128.68 C85.38 127.36, 44.11 128.47, -0.91 128.1 M-0.27 129.75 C1.94 78.89, 1.62 27.65, -1.65 -1.72 M0.61 128.26 C1.3 85.04, -0.3 40.48, -0.66 -0.72" stroke="#000000" stroke-width="1" fill="none"></path></g><g stroke-linecap="round" transform="translate(606.4882073334213 231.96428571428572) rotate(0 64 64)"><path d="M-0.35 -0.22 C44.95 -2.49, 91.44 -2.9, 126.26 -1.31 M-0.36 -0.6 C36.9 -1.58, 72.52 -0.76, 127.24 0.56 M129.4 -0.19 C126.27 36.43, 126.6 68.2, 129.18 127.59 M127.26 0.1 C125.75 49.82, 126.35 99.93, 128.97 127.91 M128.23 126.98 C84.2 127.88, 40.52 127.77, 1.33 128.51 M128.68 127.08 C93.28 126.92, 59.87 126.51, 0.1 128.92 M1.75 129.27 C1.65 97.24, 0.62 62.93, -1.72 0.82 M0.26 128.98 C1.29 92.12, 0.37 56.81, -0.72 0.02" stroke="#000000" stroke-width="1" fill="none"></path></g><g stroke-linecap="round" transform="translate(89.34535019056432 231.96428571428572) rotate(0 64 64)"><path d="M-0.22 -1.1 C47.59 -0.43, 96.16 -1.51, 126.69 -0.29 M-0.6 0.38 C50.68 -0.07, 102.53 -0.31, 128.56 -0.27 M127.81 -0.92 C128.95 29.66, 125.72 61.67, 127.59 129.73 M128.1 -1 C127.35 25.5, 127.98 52.77, 127.91 128.44 M126.98 128.18 C92.93 128.62, 58.46 129.48, 0.51 127.39 M127.08 127.79 C93.34 129.76, 58.77 128.97, 0.92 127.48 M1.27 129.11 C1.12 95.02, -1.48 60.15, 0.82 -0.49 M0.98 128.67 C-1.4 95.6, -1.45 63, 0.02 0.66" stroke="#000000" stroke-width="1" fill="none"></path></g><g stroke-linecap="round" transform="translate(218.63106447627854 362.42492514889733) rotate(0 64 63.99999999999997)"><path d="M-1.38 -0.66 C34.36 -1.03, 70.99 0.41, 129.97 1.92 M-0.35 -0.52 C34.31 -1.25, 68.25 -0.75, 127.36 -0.38 M129.43 -0.58 C126.08 48.55, 127.47 96.47, 126.05 126.46 M128.34 -0.4 C129.1 29.84, 128.04 58.17, 127.68 128.47 M127.29 128.47 C87.28 129.45, 48.74 127.5, -0.66 127.09 M127.5 128.89 C79.98 127.82, 34.7 127.2, -0.42 127.87 M0.95 128.09 C-2.46 76.67, 0 28.29, -0.98 1.23 M-0.61 127.74 C-1.92 85.53, -1.23 45.15, 0.07 0.6" stroke="#000000" stroke-width="1" fill="none"></path></g><g stroke-linecap="round" transform="translate(347.91677876199276 362.42492514889733) rotate(0 64 63.99999999999997)"><path d="M-0.66 -1.79 C35.23 -0.42, 73.63 2.86, 129.92 -0.71 M-0.52 0.46 C29.9 1.01, 61.05 -0.19, 127.62 0.7 M127.42 -1.8 C128.59 36.79, 129.15 72.45, 126.46 126.51 M127.6 0.97 C127.7 39.57, 127.16 79, 128.47 128.12 M128.47 127.17 C97.49 128.06, 63.71 126.88, -0.91 129.36 M128.89 127.09 C101.51 128.28, 74.31 126.94, -0.13 128.88 M0.09 126.35 C-2.43 82.27, -1.2 33.93, 1.23 0.52 M-0.26 127.34 C-1.57 77.05, -0.19 26.12, 0.6 0.22" stroke="#000000" stroke-width="1" fill="none"></path></g><g stroke-linecap="round" transform="translate(477.2024930477071 362.42492514889733) rotate(0 64 63.99999999999997)"><path d="M-1.79 -1.74 C30.03 0.13, 64.64 2.34, 127.29 -1.21 M0.46 -0.76 C43.81 0.4, 85.86 0.29, 128.7 -0.09 M126.2 1.18 C128.51 34.27, 126.96 63.55, 126.51 128.2 M128.97 0.97 C128.34 26.08, 128.11 51.76, 128.12 127.49 M127.17 129.33 C88.99 127.69, 48.29 127.39, 1.36 126.15 M127.09 128.1 C93.26 128.62, 56.26 129.01, 0.88 128.64 M-1.65 126.28 C0.21 82, -1.59 38.2, 0.52 1.96 M-0.66 127.28 C0.81 81.71, 0.85 34.7, 0.22 -0.06" stroke="#000000" stroke-width="1" fill="none"></path></g><g stroke-linecap="round" transform="translate(606.4882073334213 362.42492514889733) rotate(0 64 63.99999999999997)"><path d="M-1.74 -1.31 C29.27 3.12, 61.04 0.43, 126.79 0.76 M-0.76 0.56 C33.63 -1.23, 67.42 0.11, 127.91 -0.46 M129.18 -0.41 C129.36 45.61, 126.09 93.64, 128.2 126.01 M128.97 -0.09 C127.92 42.37, 127.95 85.49, 127.49 128.09 M129.33 128.51 C93.57 126.81, 59.44 128.83, -1.85 127.57 M128.1 128.92 C95.52 126.42, 63.95 127.71, 0.64 128.56 M-1.72 128.82 C-0.54 82.53, 1.17 39.54, 1.96 1.34 M-0.72 128.02 C0.99 97.49, 0.93 67.07, -0.06 -0.93" stroke="#000000" stroke-width="1" fill="none"></path></g><g stroke-linecap="round" transform="translate(89.34535019056432 362.42492514889733) rotate(0 64 63.99999999999997)"><path d="M-1.31 -0.29 C36.16 3.03, 67.67 -0.1, 128.76 -0.7 M0.56 -0.27 C31.09 0.6, 64.15 0.88, 127.54 0.72 M127.59 1.73 C124.89 33.12, 125.36 69.52, 126.01 128.67 M127.91 0.44 C128.92 33.72, 129.36 66, 128.09 127.64 M128.51 127.39 C85.95 127.95, 46.59 127.01, -0.43 126.99 M128.92 127.48 C77.78 127.99, 29.26 128.76, 0.56 128.48 M0.82 127.51 C0.08 90.27, 1.58 52.06, 1.34 -1.22 M0.02 128.66 C0.92 93.51, 1.07 57.77, -0.93 -0.53" stroke="#000000" stroke-width="1" fill="none"></path></g><g stroke-linecap="round" transform="translate(218.63106447627854 488.75) rotate(0 64 64)"><path d="M1.97 1.92 C26.58 -1.02, 55.34 -0.52, 126.96 0.93 M-0.64 -0.38 C29.33 0.25, 56.79 1.06, 127.71 -0.9 M126.05 -1.54 C126.25 46.13, 125.75 92.54, 127.2 129.94 M127.68 0.47 C128.01 50.32, 127.98 101.3, 128.23 127.59 M127.34 127.09 C82.43 125.76, 33.71 126.6, 1.78 126.18 M127.58 127.87 C89.24 127.97, 49.29 127.81, 0.04 127.18 M-0.98 129.23 C0 102.56, 0.81 71.97, -0.52 -1.33 M0.07 128.6 C0.18 98.74, -0.96 69.05, -0.2 0.63" stroke="#000000" stroke-width="1" fill="none"></path></g><g stroke-linecap="round" transform="translate(347.91677876199276 488.75) rotate(0 64 64)"><path d="M1.92 -0.71 C28.82 -0.51, 59.36 -2.31, 128.93 -1.53 M-0.38 0.7 C45.5 0.36, 91.9 0.52, 127.1 0.59 M126.46 -1.49 C129.3 33.79, 129.78 70.76, 129.94 129.94 M128.47 0.12 C128.04 37.39, 128.2 74.83, 127.59 128.67 M127.09 129.36 C84.46 127.15, 43.61 129.36, -1.82 128.19 M127.87 128.88 C78.42 128.02, 28.04 127.51, -0.82 127.14 M1.23 128.52 C2.28 85.7, -0.91 40.22, -1.33 -1.44 M0.6 128.22 C-0.9 88.37, -1.38 50.4, 0.63 -0.13" stroke="#000000" stroke-width="1" fill="none"></path></g><g stroke-linecap="round" transform="translate(477.2024930477071 488.75) rotate(0 64 64)"><path d="M-0.71 -1.21 C37.28 -1.93, 72 -0.3, 126.47 1.12 M0.7 -0.09 C34.54 1.2, 69.71 -0.42, 128.59 -0.2 M126.51 0.2 C124.76 50.15, 125.95 100.9, 129.94 127.83 M128.12 -0.51 C127.68 43.61, 127.83 87.53, 128.67 128.26 M129.36 126.15 C93.06 126.41, 60.76 125.6, 0.19 129.85 M128.88 128.64 C96.85 128.31, 64.62 127.01, -0.86 128.41 M0.52 129.96 C1.96 91.51, 0.11 56.14, -1.44 0.05 M0.22 127.94 C-1.02 80.61, -0.29 34.92, -0.13 -0.64" stroke="#000000" stroke-width="1" fill="none"></path></g><g stroke-linecap="round" transform="translate(606.4882073334213 488.75) rotate(0 64 64)"><path d="M-1.21 0.76 C50.33 -0.59, 102.99 -1.07, 129.12 -0.53 M-0.09 -0.46 C30.96 -1.19, 59.6 -0.31, 127.8 0.87 M128.2 -1.99 C127.68 25.09, 128.95 53.74, 127.83 128.87 M127.49 0.09 C128.24 34.59, 128.18 69.38, 128.26 127.7 M126.15 127.57 C92.83 130.65, 57.86 129.06, 1.85 126.95 M128.64 128.56 C95.41 129.16, 61.05 128.26, 0.41 127.76 M1.96 129.34 C-2.01 95.34, -2.11 62.28, 0.05 1.32 M-0.06 127.07 C-1.3 88.54, -0.14 49.36, -0.64 -0.24" stroke="#000000" stroke-width="1" fill="none"></path></g><g stroke-linecap="round" transform="translate(89.34535019056432 488.75) rotate(0 64 64)"><path d="M0.76 -0.7 C49.63 1.7, 99.82 1.9, 127.47 -1.27 M-0.46 0.72 C33.29 -0.78, 67.76 -0.09, 128.87 -0.98 M126.01 0.67 C126.24 30.48, 128.99 56.91, 128.87 127.37 M128.09 -0.36 C128.38 43.97, 128.82 89.02, 127.7 127.67 M127.57 126.99 C97.18 124.99, 62.99 128.67, -1.05 127.17 M128.56 128.48 C91.34 127.99, 53.74 129.22, -0.24 127.51 M1.34 126.78 C-0.85 80.42, -1.77 35.55, 1.32 0.13 M-0.93 127.47 C-0.47 82.58, -0.4 35.27, -0.24 0.85" stroke="#000000" stroke-width="1" fill="none"></path></g><g stroke-linecap="round" transform="translate(218.63106447627854 617.1428571428571) rotate(0 64 64)"><path d="M-1.04 0.93 C29.13 1.57, 60.79 -0.82, 127.25 1.4 M-0.29 -0.9 C37.79 -1.12, 75.27 -1.89, 127.23 -0.74 M127.2 1.94 C128.67 39.48, 127.6 78.68, 128.93 128.23 M128.23 -0.41 C128.78 32.1, 127.81 63.35, 127.55 128.68 M129.78 126.18 C101.61 129.2, 73.79 126.52, -0.27 129.75 M128.04 127.18 C80.59 129.02, 34.66 128.12, 0.61 128.26 M-0.52 126.67 C-2.29 77.07, 0.47 26.19, 1.19 0.43 M-0.2 128.63 C1.07 89.67, 0.95 53.48, 0.66 -0.67" stroke="#000000" stroke-width="1" fill="none"></path></g><g stroke-linecap="round" transform="translate(347.91677876199276 617.1428571428571) rotate(0 64 64)"><path d="M0.93 -1.53 C44.37 0.14, 85.23 -0.08, 129.4 -0.19 M-0.9 0.59 C32.34 1.24, 64.11 -0.4, 127.26 0.1 M129.94 1.94 C128.26 26.52, 127.8 52.22, 128.23 126.98 M127.59 0.67 C127.8 39.22, 127.21 78.59, 128.68 127.08 M126.18 128.19 C94.18 128.1, 55.84 128.88, 1.75 129.27 M127.18 127.14 C82.89 127.81, 36.48 128.67, 0.26 128.98 M-1.33 126.56 C0.83 82.37, 0.92 35.29, 0.43 -0.11 M0.63 127.87 C0.04 101.28, 1.53 75.69, -0.67 -0.79" stroke="#000000" stroke-width="1" fill="none"></path></g><g stroke-linecap="round" transform="translate(477.2024930477071 617.1428571428571) rotate(0 64 64)"><path d="M-1.53 1.12 C33.37 -1.87, 67.05 0.81, 127.81 -0.92 M0.59 -0.2 C48.43 0.18, 94.35 0.41, 128.1 -1 M129.94 -0.17 C128.36 42.06, 128.42 85.61, 126.98 128.18 M128.67 0.26 C127.99 33.5, 127.85 68.33, 127.08 127.79 M128.19 129.85 C95 126, 63.82 128.58, 1.27 129.11 M127.14 128.41 C83.26 126.46, 39.63 127.21, 0.98 128.67 M-1.44 128.05 C1.65 97.56, 1.53 67.28, -0.11 -1.86 M-0.13 127.36 C0.01 97.27, 0.91 64.18, -0.79 0.86" stroke="#000000" stroke-width="1" fill="none"></path></g><g stroke-linecap="round" transform="translate(606.4882073334213 617.1428571428571) rotate(0 64 64)"><path d="M1.12 -0.53 C30.45 0.23, 64.85 0.79, 127.08 1.43 M-0.2 0.87 C33.68 -1.52, 68.58 -0.66, 127 0.34 M127.83 0.87 C128.61 34.19, 129.47 65.49, 128.18 127.29 M128.26 -0.3 C127.14 40.93, 128.15 81.85, 127.79 127.5 M129.85 126.95 C77.36 127.86, 30.14 129.4, 1.11 128.95 M128.41 127.76 C88.56 127.51, 50.36 127.88, 0.67 127.39 M0.05 129.32 C0.98 94.11, 1.28 57.72, -1.86 -1.07 M-0.64 127.76 C0.05 92.81, -1.47 55.51, 0.86 -0.77" stroke="#000000" stroke-width="1" fill="none"></path></g><g stroke-linecap="round" transform="translate(89.34535019056432 617.1428571428571) rotate(0 64 64)"><path d="M-0.53 -1.27 C43.58 0.68, 88.47 -1.63, 129.43 -0.58 M0.87 -0.98 C26.09 -0.48, 53.82 -0.73, 128.34 -0.4 M128.87 -0.63 C130.18 51.04, 128.22 101.79, 127.29 128.47 M127.7 -0.33 C128.4 33.78, 127.93 65.98, 127.5 128.89 M126.95 127.17 C101.01 130.93, 75.82 130.29, 0.95 128.09 M127.76 127.51 C100.76 128.79, 73.28 129.19, -0.61 127.74 M1.32 128.13 C2.11 98.53, 0.81 66.34, -1.07 -0.4 M-0.24 128.85 C0.82 80.93, -0.63 36.05, -0.77 -0.91" stroke="#000000" stroke-width="1" fill="none"></path></g><g stroke-linecap="round"><g transform="translate(614.7739216191355 64.00000000000003) rotate(0 53.4072063608574 -0.13536788747749284)"><path d="M0.02 -1.15 C17.78 -1.17, 88.41 -1.08, 106.08 -1.06 M-1.43 0.86 C16.74 1.04, 89.93 0.11, 108.24 -0.08" stroke="#000000" stroke-width="1" fill="none"></path></g><g transform="translate(614.7739216191355 64.00000000000003) rotate(0 53.4072063608574 -0.13536788747749284)"><path d="M26.3 -13.16 C19.04 -10.48, 11.74 -4.23, 1.87 0.4 M28.23 -11.38 C21.4 -9.93, 16.93 -7.55, 0.02 -0.85" stroke="#000000" stroke-width="1" fill="none"></path></g><g transform="translate(614.7739216191355 64.00000000000003) rotate(0 53.4072063608574 -0.13536788747749284)"><path d="M26.29 7.37 C19.19 4.7, 11.9 5.62, 1.87 0.4 M28.21 9.14 C21.37 6.12, 16.91 4.04, 0.02 -0.85" stroke="#000000" stroke-width="1" fill="none"></path></g><g transform="translate(614.7739216191355 64.00000000000003) rotate(0 53.4072063608574 -0.13536788747749284)"><path d="M78.25 8.73 C85.79 5.98, 93.13 6.82, 110.08 1.47 M80.18 10.51 C85.59 7.84, 93.37 5.69, 108.24 0.23" stroke="#000000" stroke-width="1" fill="none"></path></g><g transform="translate(614.7739216191355 64.00000000000003) rotate(0 53.4072063608574 -0.13536788747749284)"><path d="M78.02 -11.79 C85.45 -9.2, 92.85 -3.02, 110.08 1.47 M79.94 -10.01 C85.42 -8.21, 93.26 -5.89, 108.24 0.23" stroke="#000000" stroke-width="1" fill="none"></path></g></g><g transform="translate(626.6811279799929 10) rotate(0 41.5 17.5)"><text x="0" y="25" font-family="Virgil, Segoe UI Emoji" font-size="28px" fill="#000000" text-anchor="start" style="white-space: pre;" direction="ltr">1.2 km</text></g><g stroke-linecap="round"><g transform="translate(717.0810009725634 166.9925107446207) rotate(89.64915019517204 54.022476243107974 0.20203428670235724)"><path d="M0.56 -0.88 C9.52 -0.56, 36.52 0.75, 54.13 0.83 C71.75 0.92, 97.28 -0.07, 106.24 -0.37 M-0.61 1.28 C8.22 1.35, 35.27 -0.76, 53.48 -0.85 C71.69 -0.94, 99.49 0.67, 108.65 0.75" stroke="#000000" stroke-width="1" fill="none"></path></g><g transform="translate(717.0810009725634 166.9925107446207) rotate(89.64915019517204 54.022476243107974 0.20203428670235724)"><path d="M24.6 -8.14 C18.99 -7.78, 8.6 -2.39, -1.1 -1 M26.27 -8.71 C16.54 -5.49, 9.47 -4.45, 0 0.01" stroke="#000000" stroke-width="1" fill="none"></path></g><g transform="translate(717.0810009725634 166.9925107446207) rotate(89.64915019517204 54.022476243107974 0.20203428670235724)"><path d="M23.9 10.17 C18.69 4.51, 8.52 3.88, -1.1 -1 M25.57 9.6 C16.06 6.57, 9.22 1.35, 0 0.01" stroke="#000000" stroke-width="1" fill="none"></path></g><g transform="translate(717.0810009725634 166.9925107446207) rotate(89.64915019517204 54.022476243107974 0.20203428670235724)"><path d="M81.75 10.05 C93.03 4.73, 99.38 4.67, 106.99 0.62 M83.42 9.48 C91.07 7.16, 101.41 2.53, 108.09 1.64" stroke="#000000" stroke-width="1" fill="none"></path></g><g transform="translate(717.0810009725634 166.9925107446207) rotate(89.64915019517204 54.022476243107974 0.20203428670235724)"><path d="M82.32 -8.27 C93.26 -7.56, 99.42 -1.6, 106.99 0.62 M83.99 -8.84 C91.48 -4.9, 101.62 -3.27, 108.09 1.64" stroke="#000000" stroke-width="1" fill="none"></path></g></g><g transform="translate(759.0596359048498 151.12807721873276) rotate(89.99999999999994 41.5 17.5)"><text x="0" y="25" font-family="Virgil, Segoe UI Emoji" font-size="28px" fill="#000000" text-anchor="start" style="white-space: pre;" direction="ltr">1.2 km</text></g><g stroke-linecap="round"><g transform="translate(90.72148721542027 779.8496536017633) rotate(0 321.19529154657255 0.46980510061604264)"><path d="M-0.31 0.21 C106.99 0.24, 535.56 0.19, 642.7 0.08 M1.73 -0.72 C108.95 -0.47, 535.03 1.44, 641.67 1.66" stroke="#000000" stroke-width="1" fill="none"></path></g><g transform="translate(90.72148721542027 779.8496536017633) rotate(0 321.19529154657255 0.46980510061604264)"><path d="M28.23 -10.31 C22.09 -8.52, 15.29 -7.72, -1.6 1.98 M28.22 -9.96 C17.18 -6.75, 6.26 -1.2, 0.18 0.15" stroke="#000000" stroke-width="1" fill="none"></path></g><g transform="translate(90.72148721542027 779.8496536017633) rotate(0 321.19529154657255 0.46980510061604264)"><path d="M28.23 10.21 C22.11 7.69, 15.31 4.2, -1.6 1.98 M28.22 10.56 C17.12 5.59, 6.2 2.96, 0.18 0.15" stroke="#000000" stroke-width="1" fill="none"></path></g><g transform="translate(90.72148721542027 779.8496536017633) rotate(0 321.19529154657255 0.46980510061604264)"><path d="M613.8 11.57 C619.51 9.22, 624.54 5.74, 640.38 3.43 M613.79 11.92 C625.17 7.47, 636.74 4.87, 642.16 1.6" stroke="#000000" stroke-width="1" fill="none"></path></g><g transform="translate(90.72148721542027 779.8496536017633) rotate(0 321.19529154657255 0.46980510061604264)"><path d="M613.87 -8.96 C619.55 -7, 624.56 -6.17, 640.38 3.43 M613.86 -8.6 C625.28 -4.87, 636.82 0.71, 642.16 1.6" stroke="#000000" stroke-width="1" fill="none"></path></g></g><g transform="translate(368.0596359048499 788.5714285714287) rotate(0 56.50000000000003 17.5)"><text x="0" y="25" font-family="Virgil, Segoe UI Emoji" font-size="28px" fill="#000000" text-anchor="start" style="white-space: pre;" direction="ltr">1200 km</text></g><g stroke-linecap="round"><g transform="translate(-268.8057449399218 426.9017176198093) rotate(89.99999999999994 321.79002666621335 -0.47679247091193133)"><path d="M0.43 -0.19 C107.43 -0.17, 534.94 0.55, 642.08 0.63 M-0.8 -1.33 C106.57 -1.72, 537.13 -1.67, 644.38 -1.16" stroke="#000000" stroke-width="1" fill="none"></path></g><g transform="translate(-268.8057449399218 426.9017176198093) rotate(89.99999999999994 321.79002666621335 -0.47679247091193133)"><path d="M28.33 -11.72 C21 -6.49, 11.68 -4.22, 1.74 -0.92 M29.41 -10.05 C22.72 -7.79, 16.42 -5.87, 0.19 -0.96" stroke="#000000" stroke-width="1" fill="none"></path></g><g transform="translate(-268.8057449399218 426.9017176198093) rotate(89.99999999999994 321.79002666621335 -0.47679247091193133)"><path d="M28.3 8.81 C20.88 7.67, 11.58 3.58, 1.74 -0.92 M29.38 10.47 C22.5 8.3, 16.2 5.78, 0.19 -0.96" stroke="#000000" stroke-width="1" fill="none"></path></g><g transform="translate(-268.8057449399218 426.9017176198093) rotate(89.99999999999994 321.79002666621335 -0.47679247091193133)"><path d="M615.85 7.74 C625.92 6.43, 634.09 2.37, 645.68 -1.89 M616.94 9.41 C622.24 7.45, 628.12 4.95, 644.13 -1.92" stroke="#000000" stroke-width="1" fill="none"></path></g><g transform="translate(-268.8057449399218 426.9017176198093) rotate(89.99999999999994 321.79002666621335 -0.47679247091193133)"><path d="M615.89 -12.78 C626.04 -7.73, 634.2 -5.43, 645.68 -1.89 M616.98 -11.11 C622.47 -8.64, 628.35 -6.7, 644.13 -1.92" stroke="#000000" stroke-width="1" fill="none"></path></g></g><g transform="translate(-28.999999999999943 416.06778229175444) rotate(89.99999999999994 56.5 17.5)"><text x="0" y="25" font-family="Virgil, Segoe UI Emoji" font-size="28px" fill="#000000" text-anchor="start" style="white-space: pre;" direction="ltr">1200 km</text></g></svg>